<svg xmlns="http://www.w3.org/2000/svg" width="360" height="360" viewBox="0 0 360 360" version="1.1">
	<path d="M 165.609 52.992 C 135.461 56.797, 109.895 69.143, 88.969 90 C 78.658 100.277, 69.045 113.723, 63.300 125.905 L 59.716 133.505 51.108 133.502 C 43.884 133.500, 41.592 133.926, 36.852 136.148 C 29.694 139.504, 24.069 145.115, 20.452 152.509 C 18.071 157.376, 17.606 159.610, 17.558 166.424 C 17.506 173.644, 17.864 175.280, 20.787 181.218 C 26.205 192.224, 37.479 200, 48.018 200 C 51.518 200, 52.025 200.309, 52.521 202.750 C 58.470 232.018, 70.786 255.340, 90.304 274.297 C 107.909 291.397, 132.924 304.449, 156.169 308.664 C 168.623 310.923, 191.377 310.923, 203.831 308.664 C 227.076 304.449, 252.091 291.397, 269.696 274.297 C 289.592 254.972, 301.343 232.622, 307.576 202.250 C 307.961 200.375, 308.696 200, 311.982 200 C 317.696 200, 326.132 196.517, 331.181 192.072 C 343.751 181.007, 346.257 162.431, 337.090 148.270 C 330.529 138.135, 321.894 133.636, 308.843 133.554 L 300.186 133.500 296.607 125.836 C 282.691 96.038, 254.991 71.048, 223.234 59.641 C 207.157 53.867, 181.832 50.945, 165.609 52.992 M 122.355 119.011 C 112.233 121.084, 102.085 129.230, 97.671 138.824 C 94.317 146.113, 94.611 158.626, 98.313 166.202 C 102.231 174.219, 108.086 178.961, 128.302 190.493 L 145.822 200.486 146.216 223.993 C 146.578 245.544, 146.800 247.980, 148.882 253.262 C 151.464 259.814, 158.540 267.709, 164.582 270.778 C 178.104 277.647, 193.278 275.007, 204.092 263.905 C 212.381 255.395, 213.322 251.522, 213.784 223.993 L 214.178 200.486 231.698 190.493 C 251.914 178.961, 257.769 174.219, 261.687 166.202 C 265.399 158.606, 265.683 146.115, 262.311 138.783 C 256.766 126.725, 244.359 118.638, 231.504 118.701 C 222.631 118.745, 220.035 119.822, 197.844 132.672 L 180.013 142.997 163.374 133.383 C 154.223 128.095, 144.432 122.735, 141.618 121.472 C 135.602 118.774, 128.155 117.822, 122.355 119.011 M 122.030 135.583 C 117.459 137.566, 115.192 139.707, 112.894 144.210 C 109.508 150.843, 110.679 158.913, 115.814 164.339 C 119.741 168.490, 123.259 170, 129 170 C 139.389 170, 147 162.344, 147 151.895 C 147 147.612, 144.372 141.548, 141.320 138.788 C 136.300 134.249, 128.207 132.904, 122.030 135.583 M 223.384 135.913 C 221.120 136.941, 217.970 139.484, 216.384 141.563 C 213.873 144.855, 213.500 146.206, 213.500 151.995 C 213.500 157.438, 213.951 159.305, 215.983 162.270 C 222.222 171.375, 235.268 172.764, 243.373 165.186 C 249.070 159.860, 250.513 151.891, 247.119 144.500 C 244.934 139.742, 242.704 137.610, 237.746 135.538 C 232.891 133.510, 228.419 133.627, 223.384 135.913 M 171.459 172.341 C 167.645 176.155, 166.505 179.547, 167.412 184.385 C 169.866 197.464, 190.134 197.464, 192.588 184.385 C 193.495 179.547, 192.355 176.155, 188.541 172.341 C 185.610 169.410, 184.562 169, 180 169 C 175.438 169, 174.390 169.410, 171.459 172.341" stroke="none" fill="#000000" fill-rule="evenodd"/>
</svg>