<svg width="360" height="360" xmlns="http://www.w3.org/2000/svg" version="1.1">

 <g>
  <title>Layer 1</title>
  <path id="svg_1" fill-rule="evenodd" fill="#ffffff" d="m165.609,52.992c-30.148,3.805 -55.714,16.151 -76.64,37.008c-10.311,10.277 -19.924,23.723 -25.669,35.905l-3.584,7.6l-8.608,-0.003c-7.224,-0.002 -9.516,0.424 -14.256,2.646c-7.158,3.356 -12.783,8.967 -16.4,16.361c-2.381,4.867 -2.846,7.101 -2.894,13.915c-0.052,7.22 0.306,8.856 3.229,14.794c5.418,11.006 16.692,18.782 27.231,18.782c3.5,0 4.007,0.309 4.503,2.75c5.949,29.268 18.265,52.59 37.783,71.547c17.605,17.1 42.62,30.152 65.865,34.367c12.454,2.259 35.208,2.259 47.662,0c23.245,-4.215 48.26,-17.267 65.865,-34.367c19.896,-19.325 31.647,-41.675 37.88,-72.047c0.385,-1.875 1.12,-2.25 4.406,-2.25c5.714,0 14.15,-3.483 19.199,-7.928c12.57,-11.065 15.076,-29.641 5.909,-43.802c-6.561,-10.135 -15.196,-14.634 -28.247,-14.716l-8.657,-0.054l-3.579,-7.664c-13.916,-29.798 -41.616,-54.788 -73.373,-66.195c-16.077,-5.774 -41.402,-8.696 -57.625,-6.649m-43.254,66.019c-10.122,2.073 -20.27,10.219 -24.684,19.813c-3.354,7.289 -3.06,19.802 0.642,27.378c3.918,8.017 9.773,12.759 29.989,24.291l17.52,9.993l0.394,23.507c0.362,21.551 0.584,23.987 2.666,29.269c2.582,6.552 9.658,14.447 15.7,17.516c13.522,6.869 28.696,4.229 39.51,-6.873c8.289,-8.51 9.23,-12.383 9.692,-39.912l0.394,-23.507l17.52,-9.993c20.216,-11.532 26.071,-16.274 29.989,-24.291c3.712,-7.596 3.996,-20.087 0.624,-27.419c-5.545,-12.058 -17.952,-20.145 -30.807,-20.082c-8.873,0.044 -11.469,1.121 -33.66,13.971l-17.831,10.325l-16.639,-9.614c-9.151,-5.288 -18.942,-10.648 -21.756,-11.911c-6.016,-2.698 -13.463,-3.65 -19.263,-2.461m-0.325,16.572c-4.571,1.983 -6.838,4.124 -9.136,8.627c-3.386,6.633 -2.215,14.703 2.92,20.129c3.927,4.151 7.445,5.661 13.186,5.661c10.389,0 18,-7.656 18,-18.105c0,-4.283 -2.628,-10.347 -5.68,-13.107c-5.02,-4.539 -13.113,-5.884 -19.29,-3.205m101.354,0.33c-2.264,1.028 -5.414,3.571 -7,5.65c-2.511,3.292 -2.884,4.643 -2.884,10.432c0,5.443 0.451,7.31 2.483,10.275c6.239,9.105 19.285,10.494 27.39,2.916c5.697,-5.326 7.14,-13.295 3.746,-20.686c-2.185,-4.758 -4.415,-6.89 -9.373,-8.962c-4.855,-2.028 -9.327,-1.911 -14.362,0.375m-51.925,36.428c-3.814,3.814 -4.954,7.206 -4.047,12.044c2.454,13.079 22.722,13.079 25.176,0c0.907,-4.838 -0.233,-8.23 -4.047,-12.044c-2.931,-2.931 -3.979,-3.341 -8.541,-3.341c-4.562,0 -5.61,0.41 -8.541,3.341"/>
 </g>
</svg>